<?xml version="1.0" standalone="no"?>
<!DOCTYPE svg PUBLIC "-//W3C//DTD SVG 20010904//EN"
 "http://www.w3.org/TR/2001/REC-SVG-20010904/DTD/svg10.dtd">
<svg version="1.0" xmlns="http://www.w3.org/2000/svg"
 width="2064.000000pt" height="2064.000000pt" viewBox="0 0 2064.000000 2064.000000"
 preserveAspectRatio="xMidYMid meet">
<metadata>
Created by potrace 1.11, written by Peter Selinger 2001-2013
</metadata>
<g transform="translate(0.000000,2064.000000) scale(0.100000,-0.100000)"
fill="#000000" stroke="none">
<path d="M7620 20613 l-136 -15 -54 -87 c-606 -971 -871 -1554 -1200 -2633
l-78 -257 -157 -273 c-86 -150 -192 -345 -235 -433 -183 -375 -335 -827 -554
-1648 l-85 -318 -133 -142 c-536 -571 -961 -1133 -1260 -1664 -107 -191 -373
-740 -648 -1338 l-88 -191 -5 -344 c-7 -485 -34 -689 -207 -1558 -105 -530
-140 -726 -174 -952 -73 -482 -122 -982 -161 -1619 l-15 -244 89 -216 c205
-499 447 -1017 632 -1349 644 -1157 1422 -2035 2884 -3253 531 -443 1029 -833
2070 -1624 l590 -448 6 184 c4 101 10 302 14 447 4 144 11 261 16 260 4 -2
124 -91 266 -198 142 -107 265 -196 273 -198 8 -1 137 41 285 93 334 119 1472
505 1488 505 13 0 673 232 887 311 124 46 143 57 225 126 509 425 1074 852
1471 1111 79 52 83 55 148 170 164 286 354 701 455 994 22 64 82 224 134 355
248 622 367 1060 408 1497 14 151 6 459 -14 580 l-14 80 32 55 c143 244 173
522 81 742 -6 13 18 32 112 88 285 168 622 406 886 626 114 95 170 145 333
298 l41 39 144 -47 c78 -27 148 -50 154 -52 16 -6 339 427 510 682 233 347
443 715 532 931 62 149 114 426 127 674 l7 125 68 105 c213 331 346 636 411
939 27 129 36 359 19 510 -7 64 -16 125 -20 136 -12 32 -176 210 -263 286
-310 268 -678 431 -1287 569 -232 53 -434 126 -761 277 l-85 40 22 111 c12 61
27 160 34 220 l11 108 -39 109 c-76 212 -178 420 -312 640 -63 102 -75 132
-115 268 -40 142 -98 392 -125 547 -10 58 -20 76 -95 176 -102 135 -262 290
-425 410 l-121 89 5 70 c69 880 -6 1482 -321 2595 -48 168 -90 308 -95 311 -4
3 -107 20 -228 38 -200 31 -232 33 -377 28 -215 -7 -352 -42 -546 -138 -196
-97 -351 -212 -543 -404 -157 -156 -244 -260 -455 -540 l-160 -213 -156 -111
-155 -111 -201 56 c-367 100 -533 131 -777 142 l-141 7 -98 245 c-298 744
-604 1304 -961 1757 -105 134 -388 419 -495 500 -240 181 -449 284 -685 340
-137 32 -407 40 -610 16z m645 -1203 c146 -74 308 -221 475 -431 345 -433 627
-1044 799 -1735 67 -265 139 -684 157 -901 l7 -81 -39 -11 c-55 -15 -172 -14
-229 4 -27 8 -50 13 -50 12 -1 -1 -14 -40 -28 -87 -89 -289 -362 -668 -669
-926 -91 -76 -193 -154 -202 -154 -3 0 -14 17 -25 39 -28 54 -112 126 -177
150 -30 12 -87 26 -127 32 -39 6 -74 13 -76 14 -9 10 76 130 124 174 57 51
141 91 195 91 17 0 30 2 30 5 0 3 -26 49 -58 103 -66 109 -103 193 -121 268
-12 50 -11 55 59 275 129 404 168 586 177 826 6 155 -5 279 -32 385 -8 29 -12
55 -9 58 3 3 56 5 117 5 153 0 240 -30 331 -114 l39 -36 -6 110 c-21 390 -251
753 -570 900 -42 19 -104 42 -139 50 l-63 15 -28 -32 c-72 -84 -183 -294 -275
-523 -173 -432 -293 -924 -349 -1435 -25 -231 -25 -791 0 -1002 34 -286 82
-519 161 -778 l35 -115 -26 -27 c-57 -60 -211 -117 -314 -118 l-36 0 -6 -97
c-8 -122 -37 -238 -80 -317 -30 -54 -39 -62 -78 -74 -427 -126 -650 -230
-1024 -478 -342 -227 -560 -419 -924 -814 l-41 -45 51 125 c158 391 391 791
645 1110 195 245 503 535 724 681 l82 54 -6 310 c-6 346 -25 583 -63 770 -5
28 -2 26 66 -35 180 -161 414 -341 427 -327 3 2 0 51 -6 108 -18 168 -24 692
-11 899 72 1146 404 2208 958 3059 l74 113 37 -5 c20 -4 73 -25 117 -47z
m5334 -1545 c158 -533 185 -911 110 -1520 -21 -166 -37 -243 -38 -183 -2 52
-61 379 -91 505 -18 71 -60 217 -96 325 -75 232 -92 331 -78 447 5 45 8 81 7
81 -1 0 -41 -23 -88 -51 -116 -68 -216 -164 -255 -243 -45 -92 -61 -180 -67
-379 l-6 -179 53 56 c52 55 171 126 210 126 15 0 16 -6 10 -42 -35 -191 -10
-460 64 -693 14 -43 24 -80 23 -81 -1 -2 -45 27 -97 63 -150 102 -380 236
-562 326 -130 63 -167 86 -168 101 0 40 70 273 137 456 227 615 573 1057 829
1060 l51 0 52 -175z m-1570 -1972 c128 -75 275 -174 391 -264 114 -88 313
-283 400 -394 167 -211 363 -560 491 -874 30 -74 55 -125 57 -114 5 31 -45
360 -83 548 -65 327 -138 537 -291 845 -56 113 -101 206 -99 208 8 9 226 -177
330 -282 232 -233 360 -469 483 -891 27 -93 66 -242 86 -330 20 -88 38 -164
40 -170 1 -5 8 49 15 120 28 289 77 559 132 726 31 91 74 189 85 189 12 0 114
-56 169 -93 71 -48 166 -141 187 -182 9 -17 34 -162 57 -330 47 -337 34 -297
181 -550 113 -194 190 -351 190 -387 0 -32 -45 -161 -72 -205 -10 -18 -28 -35
-38 -38 -45 -14 -130 56 -175 144 -16 33 -17 33 -35 15 -11 -11 -40 -57 -65
-104 -63 -115 -85 -134 -148 -127 -72 9 -145 47 -215 111 l-62 58 41 -118 c57
-167 91 -227 179 -314 66 -66 99 -89 280 -188 434 -238 964 -495 1249 -603
l113 -43 -53 -18 c-105 -36 -229 -100 -234 -122 -26 -114 -48 -298 -52 -452
l-6 -180 108 -115 c251 -267 389 -478 471 -719 26 -77 36 -92 100 -155 38 -38
96 -85 127 -104 56 -33 59 -34 100 -20 23 8 77 35 121 61 44 27 81 48 84 48 8
0 -7 -199 -24 -305 -19 -121 -75 -246 -183 -408 -61 -91 -209 -257 -229 -257
-4 0 -18 17 -32 37 -14 21 -51 73 -83 116 l-59 79 -38 -6 c-21 -3 -141 -44
-267 -90 -377 -138 -614 -210 -878 -265 -605 -127 -1106 -120 -1620 24 -111
31 -212 65 -760 257 -422 147 -648 198 -881 198 -79 0 -161 -6 -203 -15 -82
-17 -216 -67 -249 -93 -24 -18 -24 -19 65 -32 114 -16 292 -60 434 -106 222
-71 429 -159 999 -427 421 -197 552 -242 825 -283 134 -20 222 -27 415 -31
279 -6 358 2 705 67 462 87 644 89 773 10 69 -43 60 -89 -36 -186 -261 -264
-819 -552 -1276 -659 -253 -59 -535 -76 -749 -46 l-99 14 -80 63 c-384 306
-1075 534 -1693 560 -188 8 -294 -8 -490 -73 -138 -46 -414 -176 -525 -247
-64 -40 -68 -38 100 -56 322 -34 587 -122 799 -265 143 -96 229 -171 435 -379
199 -201 199 -201 165 -203 -227 -17 -329 -38 -448 -93 -74 -35 -161 -88 -161
-99 0 -4 30 -29 68 -56 37 -28 105 -88 152 -136 418 -421 541 -1073 374 -1989
-29 -160 -119 -527 -169 -693 -20 -66 -35 -123 -33 -127 2 -5 39 6 83 24 368
150 861 483 1168 788 65 64 120 112 122 105 12 -34 25 -196 25 -311 l0 -130
36 35 c103 98 293 348 429 564 83 131 246 451 300 588 25 65 41 94 46 85 32
-58 50 -417 28 -588 -70 -572 -400 -1216 -941 -1841 -59 -68 -126 -146 -150
-172 l-43 -49 0 214 c0 126 -6 249 -14 300 -7 49 -14 88 -15 88 -1 0 -92 -89
-202 -198 -109 -109 -266 -253 -347 -321 -628 -522 -1443 -1019 -2012 -1226
l-91 -33 -179 112 c-99 62 -306 191 -460 286 -797 496 -1239 826 -1909 1425
-252 225 -254 226 -260 217 -3 -5 -16 -74 -30 -153 -25 -146 -42 -301 -54
-507 l-7 -114 -285 274 c-972 936 -1576 1617 -1903 2144 -218 352 -324 589
-547 1229 -54 154 -103 292 -109 308 -6 15 -9 27 -7 27 2 0 56 -69 119 -152
536 -715 1029 -1222 1612 -1660 180 -135 342 -247 524 -365 l146 -93 7 80 c13
157 71 405 92 397 7 -3 75 -51 152 -107 408 -301 879 -583 1409 -845 257 -126
697 -336 701 -333 1 2 -36 46 -83 98 -660 738 -1256 1472 -1995 2453 -185 246
-340 449 -344 450 -23 7 -80 -249 -89 -398 -4 -55 -9 -106 -11 -114 -6 -19
-139 111 -248 244 -157 190 -274 376 -401 639 l-72 148 -53 -63 c-59 -71 -148
-203 -176 -261 -10 -21 -21 -38 -24 -38 -4 0 -38 73 -78 163 -184 421 -243
633 -243 867 0 293 96 542 378 983 53 81 97 147 98 145 2 -2 17 -60 34 -130
61 -247 155 -483 254 -635 44 -68 162 -203 177 -203 5 0 14 17 20 38 17 52 91
193 100 190 4 -2 42 -46 86 -98 403 -483 942 -953 1278 -1115 146 -71 211 -80
551 -80 256 0 305 3 415 23 140 25 263 61 329 96 l43 23 -148 83 c-534 299
-779 472 -1029 724 -272 274 -488 592 -756 1111 -92 180 -319 657 -334 704 -7
22 -6 22 32 5 241 -103 620 -227 823 -268 204 -41 194 -42 120 22 -209 181
-511 501 -673 715 -113 148 -307 452 -307 480 0 4 7 7 17 7 33 0 342 73 488
115 262 76 454 159 559 241 51 40 56 48 56 83 0 37 -33 113 -88 202 l-22 35
138 58 c411 173 845 416 1034 578 109 93 219 126 456 135 l152 6 40 -28 c75
-52 214 -210 335 -380 260 -365 353 -427 645 -427 237 0 423 48 675 172 163
80 308 167 300 181 -4 5 -34 9 -68 9 -143 0 -378 51 -534 116 -221 91 -322
171 -718 568 -181 182 -358 351 -392 376 -35 24 -63 47 -63 51 0 16 129 144
192 191 67 50 69 53 47 62 -147 58 -319 156 -364 206 -17 18 -17 23 -5 30 44
25 165 117 238 180 105 91 208 209 333 380 152 208 178 232 289 271 55 19 86
23 206 23 l140 0 -7 56 c-10 66 -31 128 -64 188 -14 25 -25 50 -25 56 0 21 70
186 127 299 133 267 265 409 425 458 51 16 89 19 233 18 184 -1 233 7 281 47
16 13 35 21 43 18 7 -2 57 -30 110 -61z m4955 -3798 c79 -17 171 -58 235 -105
l44 -32 -5 -96 c-6 -103 -27 -180 -81 -287 -36 -73 -124 -207 -167 -255 l-31
-35 6 30 c23 100 34 191 35 267 l0 87 -45 27 c-97 57 -238 75 -422 55 -100
-11 -117 -11 -213 9 -116 24 -260 68 -260 81 0 12 105 73 221 129 248 118 498
164 683 125z"/>
<path d="M11510 14423 c0 -4 14 -52 30 -106 16 -54 32 -121 36 -147 7 -56 11
-54 -110 -65 -214 -21 -510 -131 -721 -270 -87 -58 -165 -122 -165 -135 0 -5
13 -11 29 -15 76 -16 244 -141 550 -408 220 -191 309 -262 382 -301 133 -73
493 -55 772 39 l98 32 84 -60 c181 -128 387 -348 537 -572 44 -66 84 -121 88
-123 11 -4 105 190 134 278 49 148 69 273 71 446 l2 161 43 71 c23 39 55 104
70 144 30 77 57 195 47 204 -3 4 -52 -3 -109 -14 -245 -50 -487 -55 -619 -13
-105 33 -178 90 -414 321 -287 281 -400 372 -560 452 -99 50 -275 102 -275 81z
m419 -776 c154 -134 263 -239 254 -247 -4 -4 -120 -17 -258 -28 l-249 -22 -39
26 c-21 14 -56 41 -78 61 -42 38 -129 153 -129 170 0 31 152 97 255 112 138
20 137 20 244 -72z"/>
</g>
</svg>
